<svg xmlns="http://www.w3.org/2000/svg" width="128" height="32" viewBox="0 0 128 32" shape-rendering="crispEdges">
  <g transform="translate(0 0)"><path d="M9 8h15v4h3v10h-4v8H11v-7H6V13h3z" fill="#2d5369"/><path d="M7 7h5V4h12v4h2v6H6V9z" fill="#d8a548"/><rect x="10" y="10" width="14" height="10" fill="#efbd82"/><rect x="20" y="14" width="3" height="3" fill="#26333a"/><rect x="10" y="21" width="14" height="7" fill="#4e8f67"/><path d="M8 27h6v5H8zM19 28h6v4h-6z" fill="#49392f"/><rect x="4" y="17" width="7" height="10" fill="#6b412e"/></g>
  <g transform="translate(32 0)"><path d="M9 8h15v4h3v10h-4v8H11v-7H6V13h3z" fill="#2d5369"/><path d="M7 7h5V4h12v4h2v6H6V9z" fill="#d8a548"/><rect x="10" y="10" width="14" height="10" fill="#efbd82"/><rect x="20" y="14" width="3" height="3" fill="#26333a"/><rect x="10" y="21" width="14" height="7" fill="#4e8f67"/><path d="M7 29h6v3H7zM20 27h6v5h-6z" fill="#49392f"/><rect x="4" y="17" width="7" height="10" fill="#6b412e"/></g>
  <g transform="translate(64 0)"><path d="M9 8h15v4h3v10h-4v8H11v-7H6V13h3z" fill="#2d5369"/><path d="M7 7h5V4h12v4h2v6H6V9z" fill="#d8a548"/><rect x="10" y="10" width="14" height="10" fill="#efbd82"/><rect x="20" y="14" width="3" height="3" fill="#26333a"/><rect x="10" y="21" width="14" height="7" fill="#4e8f67"/><path d="M8 28h6v4H8zM19 27h6v5h-6z" fill="#49392f"/><rect x="4" y="17" width="7" height="10" fill="#6b412e"/></g>
  <g transform="translate(96 0)"><path d="M9 8h15v4h3v10h-4v8H11v-7H6V13h3z" fill="#2d5369"/><path d="M7 7h5V4h12v4h2v6H6V9z" fill="#d8a548"/><rect x="10" y="10" width="14" height="10" fill="#efbd82"/><rect x="20" y="14" width="3" height="3" fill="#26333a"/><rect x="10" y="21" width="14" height="7" fill="#4e8f67"/><path d="M7 27h6v5H7zM20 29h6v3h-6z" fill="#49392f"/><rect x="4" y="17" width="7" height="10" fill="#6b412e"/></g>
</svg>
